<svg id="svg" version="1.1" xmlns="http://www.w3.org/2000/svg" xmlns:xlink="http://www.w3.org/1999/xlink" width="400" height="400" viewBox="0, 0, 400,400"><g id="svgg"><path id="path0" d="M27.600 116.390 L 27.600 119.988 39.100 120.094 L 50.600 120.200 50.600 199.600 L 50.600 279.000 39.100 279.106 L 27.600 279.212 27.600 282.806 L 27.600 286.400 56.500 286.394 C 72.395 286.391,85.615 286.251,85.878 286.084 C 86.572 285.643,85.775 282.440,84.676 281.258 C 83.119 279.583,82.169 279.432,71.800 279.212 L 61.800 279.000 61.699 212.100 C 61.614 156.093,61.686 145.200,62.139 145.200 C 62.436 145.200,64.192 147.103,66.040 149.429 C 67.888 151.756,69.670 153.982,70.000 154.376 C 70.330 154.771,71.050 155.686,71.600 156.410 C 72.150 157.134,72.780 157.928,73.000 158.173 C 73.220 158.419,74.028 159.425,74.794 160.410 C 75.561 161.394,76.408 162.470,76.675 162.800 C 77.571 163.905,87.385 176.235,88.600 177.783 C 89.260 178.623,92.050 182.133,94.800 185.583 C 97.550 189.032,100.287 192.472,100.883 193.227 C 103.491 196.534,126.503 225.475,127.075 226.169 C 127.424 226.591,130.932 231.001,134.871 235.969 C 138.810 240.936,142.253 245.270,142.522 245.600 C 142.791 245.930,143.639 247.001,144.406 247.981 C 145.172 248.960,146.187 250.220,146.659 250.781 C 147.131 251.341,149.073 253.780,150.973 256.200 C 152.873 258.620,154.705 260.933,155.044 261.339 C 155.383 261.746,157.828 264.806,160.479 268.139 C 163.130 271.473,165.800 274.830,166.414 275.600 C 171.185 281.584,173.136 284.052,174.000 285.199 C 175.248 286.856,175.978 287.604,176.329 287.585 C 176.478 287.577,179.300 286.975,182.600 286.249 L 188.600 284.927 188.800 202.563 L 189.000 120.200 200.600 119.985 C 206.980 119.866,212.252 119.731,212.316 119.685 C 212.380 119.638,212.380 118.115,212.316 116.300 L 212.200 113.000 182.800 113.000 L 153.400 113.000 153.400 116.400 L 153.400 119.800 165.600 120.000 L 177.800 120.200 177.901 184.900 C 178.011 254.773,178.120 251.181,175.960 248.337 C 175.432 247.642,174.817 246.877,174.594 246.637 C 174.371 246.396,173.566 245.390,172.805 244.400 C 172.043 243.410,171.324 242.510,171.207 242.400 C 171.089 242.290,169.199 239.950,167.007 237.200 C 164.814 234.450,162.802 231.930,162.536 231.600 C 162.269 231.270,160.676 229.290,158.995 227.200 C 157.314 225.110,155.428 222.770,154.804 222.000 C 154.180 221.230,152.025 218.530,150.016 216.000 C 148.006 213.470,146.143 211.130,145.875 210.800 C 145.608 210.470,144.761 209.399,143.994 208.419 C 143.228 207.440,142.213 206.180,141.739 205.619 C 141.266 205.059,139.141 202.440,137.017 199.800 C 132.348 193.994,132.532 194.225,130.806 191.999 C 130.039 191.009,129.181 189.959,128.900 189.665 C 128.618 189.371,127.897 188.471,127.296 187.665 C 126.696 186.859,126.101 186.110,125.975 186.000 C 125.849 185.890,123.600 183.100,120.977 179.800 C 118.354 176.500,116.111 173.710,115.993 173.600 C 115.876 173.490,115.157 172.590,114.395 171.600 C 113.634 170.610,112.829 169.604,112.606 169.363 C 112.383 169.123,111.750 168.334,111.200 167.610 C 110.650 166.886,109.930 165.973,109.600 165.580 C 108.562 164.347,107.843 163.452,106.400 161.600 C 105.630 160.611,104.701 159.442,104.335 159.001 C 103.196 157.630,85.255 135.274,80.900 129.800 C 78.625 126.940,76.243 123.970,75.608 123.200 C 74.973 122.430,72.861 119.820,70.916 117.400 L 67.378 113.000 47.489 112.896 L 27.600 112.793 27.600 116.390 M227.467 113.067 C 227.094 113.440,227.144 118.892,227.526 119.494 C 227.759 119.861,230.687 120.014,239.020 120.094 L 250.200 120.200 250.200 199.600 L 250.200 279.000 238.800 279.200 L 227.400 279.400 227.279 281.988 C 227.212 283.411,227.264 284.999,227.393 285.516 L 227.630 286.457 272.915 286.285 C 317.511 286.116,320.154 286.042,327.000 284.759 C 331.364 283.942,338.232 281.850,341.600 280.311 C 342.590 279.859,343.940 279.244,344.600 278.945 C 351.399 275.867,359.885 268.443,364.673 261.385 C 370.167 253.286,372.455 245.680,372.490 235.400 C 372.559 215.046,360.584 200.511,338.400 194.020 C 336.750 193.537,334.847 192.975,334.172 192.771 C 333.496 192.567,332.562 192.400,332.095 192.400 C 330.111 192.400,330.997 190.987,333.600 190.001 C 340.116 187.533,348.117 181.596,352.392 176.056 C 355.936 171.461,359.237 165.195,360.323 161.000 C 360.550 160.120,360.931 158.659,361.168 157.754 C 361.728 155.620,361.725 147.360,361.164 144.906 C 360.103 140.263,359.026 137.407,356.759 133.232 C 355.690 131.262,349.768 125.016,347.600 123.571 C 346.830 123.058,346.110 122.540,346.000 122.419 C 345.802 122.202,345.422 121.978,342.186 120.171 C 335.988 116.711,328.368 114.659,317.000 113.390 C 311.530 112.779,228.055 112.478,227.467 113.067 M310.600 120.568 C 327.499 123.560,335.800 134.507,335.800 153.800 C 335.800 170.438,328.452 181.504,314.206 186.323 C 309.206 188.014,307.861 188.128,291.100 188.279 L 274.800 188.426 274.800 154.480 C 274.800 135.809,274.920 120.413,275.067 120.267 C 275.627 119.706,307.245 119.974,310.600 120.568 M314.576 196.437 C 324.552 198.235,332.191 202.619,336.816 209.200 C 337.357 209.970,337.922 210.692,338.070 210.805 C 338.560 211.177,342.393 218.987,342.397 219.620 C 342.398 219.961,342.543 220.411,342.718 220.620 C 343.357 221.382,344.267 224.902,345.187 230.167 C 345.719 233.216,345.716 239.376,345.180 242.754 C 344.393 247.716,343.534 251.519,342.754 253.500 C 342.559 253.995,342.243 254.805,342.051 255.300 C 337.975 265.801,329.235 274.372,319.400 277.512 C 314.227 279.164,313.683 279.200,293.994 279.200 L 274.800 279.200 274.800 237.600 L 274.800 196.000 293.476 196.000 C 305.231 196.000,313.050 196.162,314.576 196.437 " stroke="none" fill="#050505" fill-rule="evenodd"></path><path id="path1" d="M178.600 0.438 C 170.040 1.173,169.200 1.280,169.200 1.634 C 169.200 1.835,168.131 2.000,166.824 2.000 C 165.517 2.000,164.336 2.180,164.200 2.400 C 164.064 2.620,163.153 2.800,162.176 2.800 C 161.199 2.800,160.400 2.980,160.400 3.200 C 160.400 3.420,159.590 3.600,158.600 3.600 C 157.610 3.600,156.800 3.780,156.800 4.000 C 156.800 4.220,155.900 4.400,154.800 4.400 C 153.700 4.400,152.800 4.580,152.800 4.800 C 152.800 5.020,152.181 5.200,151.424 5.200 C 150.667 5.200,149.936 5.380,149.800 5.600 C 149.664 5.820,148.944 6.000,148.200 6.000 C 147.456 6.000,146.736 6.180,146.600 6.400 C 146.464 6.620,145.913 6.800,145.376 6.800 C 144.839 6.800,144.400 6.980,144.400 7.200 C 144.400 7.420,143.680 7.600,142.800 7.600 C 141.920 7.600,141.200 7.780,141.200 8.000 C 141.200 8.220,140.660 8.400,140.000 8.400 C 139.340 8.400,138.800 8.580,138.800 8.800 C 138.800 9.020,138.260 9.200,137.600 9.200 C 136.940 9.200,136.400 9.360,136.400 9.555 C 136.400 9.750,135.560 10.035,134.533 10.189 C 133.507 10.343,131.662 10.913,130.433 11.457 C 129.205 12.000,128.157 12.439,128.104 12.433 C 127.876 12.406,126.543 12.889,125.905 13.229 C 125.523 13.433,124.938 13.600,124.605 13.600 C 124.272 13.600,124.000 13.780,124.000 14.000 C 124.000 14.220,123.550 14.400,123.000 14.400 C 122.450 14.400,122.000 14.580,122.000 14.800 C 122.000 15.020,121.550 15.200,121.000 15.200 C 120.450 15.200,120.000 15.380,120.000 15.600 C 120.000 15.820,119.640 16.000,119.200 16.000 C 118.760 16.000,118.400 16.180,118.400 16.400 C 118.400 16.620,118.051 16.800,117.624 16.800 C 117.197 16.800,116.736 16.980,116.600 17.200 C 116.464 17.420,116.003 17.600,115.576 17.600 C 115.149 17.600,114.800 17.780,114.800 18.000 C 114.800 18.220,114.547 18.400,114.238 18.400 C 113.572 18.400,110.259 20.068,110.067 20.500 C 109.993 20.665,109.588 20.800,109.167 20.800 C 108.745 20.800,108.399 20.935,108.397 21.100 C 108.393 21.459,106.456 22.400,105.720 22.400 C 105.434 22.400,105.200 22.558,105.200 22.751 C 105.200 22.945,104.660 23.327,104.000 23.600 C 103.340 23.873,102.800 24.255,102.800 24.449 C 102.800 24.642,102.440 24.800,102.000 24.800 C 101.560 24.800,101.200 24.980,101.200 25.200 C 101.200 25.420,100.840 25.600,100.400 25.600 C 99.960 25.600,99.600 25.780,99.600 26.000 C 99.600 26.220,99.240 26.400,98.800 26.400 C 98.360 26.400,98.000 26.535,97.999 26.700 C 97.999 26.865,97.009 27.517,95.799 28.149 C 94.590 28.781,93.600 29.456,93.600 29.649 C 93.600 29.842,93.306 30.000,92.947 30.000 C 92.588 30.000,92.003 30.316,91.647 30.703 C 91.291 31.089,90.505 31.660,89.900 31.970 C 89.295 32.281,88.800 32.685,88.800 32.868 C 88.800 33.050,88.480 33.200,88.088 33.200 C 87.697 33.200,87.117 33.560,86.800 34.000 C 86.483 34.440,85.943 34.800,85.600 34.800 C 85.257 34.800,84.717 35.160,84.400 35.600 C 84.083 36.040,83.620 36.400,83.371 36.400 C 83.122 36.400,82.354 36.940,81.663 37.600 C 80.972 38.260,80.226 38.800,80.004 38.800 C 79.782 38.800,79.600 38.980,79.600 39.200 C 79.600 39.420,79.319 39.600,78.976 39.600 C 78.633 39.600,78.464 39.780,78.600 40.000 C 78.736 40.220,78.567 40.400,78.224 40.400 C 77.881 40.400,77.600 40.580,77.600 40.800 C 77.600 41.020,77.402 41.200,77.160 41.200 C 76.919 41.200,76.242 41.713,75.655 42.341 C 75.069 42.968,74.052 43.763,73.395 44.108 C 72.738 44.453,71.540 45.334,70.734 46.067 C 69.927 46.800,68.693 47.850,67.990 48.400 C 67.287 48.950,65.247 50.898,63.456 52.730 C 59.796 56.472,57.725 58.527,52.789 63.313 C 50.913 65.132,48.843 67.330,48.189 68.198 C 47.535 69.066,46.333 70.470,45.517 71.318 C 44.702 72.167,43.920 73.222,43.780 73.664 C 43.525 74.468,42.450 75.819,40.200 78.166 C 39.540 78.855,38.745 79.909,38.432 80.509 C 38.120 81.109,37.715 81.600,37.532 81.600 C 37.350 81.600,37.200 81.881,37.200 82.224 C 37.200 82.567,37.020 82.736,36.800 82.600 C 36.580 82.464,36.400 82.684,36.400 83.088 C 36.400 83.493,36.040 84.083,35.600 84.400 C 35.160 84.717,34.800 85.215,34.800 85.506 C 34.800 85.798,34.350 86.486,33.800 87.036 C 33.250 87.586,32.800 88.181,32.800 88.357 C 32.800 88.533,32.444 89.088,32.008 89.590 C 31.573 90.092,31.293 90.627,31.387 90.779 C 31.481 90.930,31.207 91.307,30.779 91.615 C 30.350 91.924,30.000 92.414,30.000 92.705 C 30.000 92.996,29.636 93.624,29.192 94.101 C 28.747 94.578,28.083 95.651,27.715 96.484 C 27.347 97.318,26.901 98.000,26.723 98.000 C 26.545 98.000,26.400 98.360,26.400 98.800 C 26.400 99.240,26.220 99.600,26.000 99.600 C 25.780 99.600,25.600 99.960,25.600 100.400 C 25.600 100.840,25.420 101.200,25.200 101.200 C 24.980 101.200,24.800 101.571,24.800 102.024 C 24.800 102.477,24.650 102.755,24.468 102.642 C 24.285 102.529,23.891 103.058,23.593 103.818 C 23.295 104.578,22.904 105.200,22.725 105.200 C 22.546 105.200,22.400 105.560,22.400 106.000 C 22.400 106.440,22.220 106.800,22.000 106.800 C 21.780 106.800,21.600 107.160,21.600 107.600 C 21.600 108.040,21.420 108.400,21.200 108.400 C 20.980 108.400,20.800 108.760,20.800 109.200 C 20.800 109.640,20.654 110.000,20.475 110.000 C 20.296 110.000,19.902 110.630,19.600 111.400 C 19.298 112.170,18.904 112.800,18.725 112.800 C 18.546 112.800,18.400 113.160,18.400 113.600 C 18.400 114.040,18.220 114.400,18.000 114.400 C 17.780 114.400,17.600 114.636,17.600 114.925 C 17.600 115.214,17.240 116.195,16.800 117.106 C 16.360 118.016,16.000 119.040,16.000 119.381 C 16.000 119.721,15.820 120.000,15.600 120.000 C 15.380 120.000,15.200 120.360,15.200 120.800 C 15.200 121.240,15.059 121.600,14.887 121.600 C 14.715 121.600,14.326 122.455,14.022 123.500 C 13.718 124.545,13.356 125.490,13.218 125.600 C 13.081 125.710,12.761 126.430,12.508 127.200 C 12.254 127.970,11.594 129.860,11.041 131.400 C 10.487 132.940,10.026 134.706,10.017 135.324 C 10.007 135.967,9.829 136.342,9.600 136.200 C 9.362 136.053,9.200 136.529,9.200 137.376 C 9.200 138.159,9.020 138.800,8.800 138.800 C 8.580 138.800,8.400 139.340,8.400 140.000 C 8.400 140.660,8.220 141.200,8.000 141.200 C 7.780 141.200,7.600 141.740,7.600 142.400 C 7.600 143.060,7.440 143.600,7.244 143.600 C 7.048 143.600,6.795 144.185,6.681 144.900 C 6.567 145.615,6.259 146.920,5.996 147.800 C 5.733 148.680,5.428 150.074,5.317 150.898 C 5.207 151.722,4.955 152.296,4.758 152.174 C 4.561 152.052,4.400 152.763,4.400 153.753 C 4.400 154.743,4.220 155.664,4.000 155.800 C 3.780 155.936,3.600 156.746,3.600 157.600 C 3.600 158.454,3.420 159.264,3.200 159.400 C 2.980 159.536,2.800 160.447,2.800 161.424 C 2.800 162.401,2.620 163.200,2.400 163.200 C 2.180 163.200,2.000 164.179,2.000 165.376 C 2.000 166.573,1.820 167.664,1.600 167.800 C 1.380 167.936,1.200 169.192,1.200 170.590 C 1.200 172.269,1.030 173.190,0.700 173.300 C -0.031 173.544,-0.031 224.129,0.700 224.860 C 1.001 225.161,1.200 226.433,1.200 228.056 C 1.200 229.539,1.380 230.864,1.600 231.000 C 1.820 231.136,2.000 232.317,2.000 233.624 C 2.000 234.941,2.178 236.000,2.400 236.000 C 2.620 236.000,2.800 236.900,2.800 238.000 C 2.800 239.100,2.980 240.000,3.200 240.000 C 3.420 240.000,3.600 240.799,3.600 241.776 C 3.600 242.753,3.780 243.664,4.000 243.800 C 4.220 243.936,4.400 244.757,4.400 245.624 C 4.400 246.491,4.580 247.200,4.800 247.200 C 5.020 247.200,5.200 247.920,5.200 248.800 C 5.200 249.680,5.380 250.400,5.600 250.400 C 5.820 250.400,6.000 251.019,6.000 251.776 C 6.000 252.533,6.180 253.264,6.400 253.400 C 6.620 253.536,6.800 254.177,6.800 254.824 C 6.800 255.471,6.980 256.000,7.200 256.000 C 7.420 256.000,7.600 256.630,7.600 257.400 C 7.600 258.170,7.780 258.800,8.000 258.800 C 8.220 258.800,8.400 259.340,8.400 260.000 C 8.400 260.660,8.580 261.200,8.800 261.200 C 9.020 261.200,9.200 261.740,9.200 262.400 C 9.200 263.060,9.380 263.600,9.600 263.600 C 9.820 263.600,10.000 264.044,10.000 264.586 C 10.000 265.128,10.279 266.433,10.620 267.486 C 11.260 269.460,11.479 270.024,12.528 272.384 C 12.867 273.145,13.056 273.910,12.948 274.084 C 12.841 274.258,12.943 274.400,13.176 274.400 C 13.409 274.400,13.600 274.760,13.600 275.200 C 13.600 275.640,13.780 276.000,14.000 276.000 C 14.220 276.000,14.400 276.439,14.400 276.976 C 14.400 277.513,14.580 278.064,14.800 278.200 C 15.020 278.336,15.200 278.797,15.200 279.224 C 15.200 279.651,15.380 280.000,15.600 280.000 C 15.820 280.000,16.000 280.360,16.000 280.800 C 16.000 281.240,16.180 281.600,16.400 281.600 C 16.620 281.600,16.799 281.915,16.797 282.300 C 16.794 283.076,20.811 291.322,21.295 291.533 C 21.463 291.607,21.600 292.012,21.600 292.433 C 21.600 292.855,21.780 293.200,22.000 293.200 C 22.220 293.200,22.400 293.560,22.400 294.000 C 22.400 294.440,22.580 294.800,22.800 294.800 C 23.020 294.800,23.200 295.036,23.200 295.325 C 23.200 295.613,23.560 296.236,24.000 296.708 C 24.440 297.180,24.800 297.844,24.800 298.183 C 24.800 298.522,24.980 298.800,25.200 298.800 C 25.420 298.800,25.600 299.078,25.600 299.417 C 25.600 299.756,25.951 300.410,26.380 300.871 C 26.809 301.331,27.273 302.224,27.412 302.854 C 27.550 303.484,27.829 304.000,28.032 304.000 C 28.234 304.000,28.400 304.236,28.400 304.525 C 28.400 304.813,28.716 305.398,29.103 305.825 C 29.489 306.251,30.026 307.095,30.294 307.700 C 30.563 308.305,30.967 308.800,31.191 308.800 C 31.416 308.800,31.600 309.160,31.600 309.600 C 31.600 310.040,31.750 310.400,31.932 310.400 C 32.115 310.400,32.519 310.895,32.830 311.500 C 33.140 312.105,33.711 312.891,34.097 313.247 C 34.484 313.603,34.800 314.148,34.800 314.459 C 34.800 314.769,35.160 315.283,35.600 315.600 C 36.040 315.917,36.400 316.425,36.400 316.728 C 36.400 317.031,36.940 317.783,37.600 318.400 C 38.260 319.017,38.800 319.717,38.800 319.957 C 38.800 320.197,39.340 320.909,40.000 321.540 C 40.660 322.171,41.200 322.892,41.200 323.143 C 41.200 323.394,41.380 323.600,41.600 323.600 C 41.820 323.600,42.000 323.858,42.000 324.173 C 42.000 324.488,42.315 324.846,42.700 324.968 C 43.085 325.091,43.649 325.751,43.952 326.437 C 44.255 327.122,45.290 328.469,46.252 329.431 C 47.213 330.392,48.000 331.346,48.000 331.551 C 48.000 331.858,50.359 334.268,59.596 343.400 C 59.819 343.620,61.584 345.426,63.518 347.414 C 65.453 349.402,67.658 351.462,68.418 351.991 C 69.178 352.520,70.297 353.458,70.903 354.076 C 71.510 354.694,72.185 355.200,72.403 355.200 C 72.622 355.200,72.800 355.380,72.800 355.600 C 72.800 355.820,72.986 356.000,73.213 356.000 C 73.441 356.000,74.257 356.630,75.027 357.400 C 75.797 358.170,76.618 358.800,76.853 358.800 C 77.087 358.800,77.783 359.340,78.400 360.000 C 79.017 360.660,79.720 361.200,79.964 361.200 C 80.208 361.200,80.972 361.740,81.663 362.400 C 82.354 363.060,83.162 363.600,83.459 363.600 C 83.757 363.600,84.000 363.750,84.000 363.932 C 84.000 364.115,84.495 364.519,85.100 364.830 C 85.705 365.140,86.491 365.711,86.847 366.097 C 87.203 366.484,87.748 366.800,88.059 366.800 C 88.369 366.800,88.883 367.160,89.200 367.600 C 89.517 368.040,90.097 368.400,90.488 368.400 C 90.880 368.400,91.200 368.550,91.200 368.732 C 91.200 368.915,91.692 369.320,92.294 369.632 C 92.896 369.945,93.711 370.470,94.105 370.800 C 95.088 371.623,97.373 372.978,100.000 374.296 C 101.210 374.903,102.260 375.535,102.333 375.700 C 102.407 375.865,102.722 376.000,103.033 376.000 C 103.345 376.000,103.600 376.180,103.600 376.400 C 103.600 376.620,103.834 376.800,104.120 376.800 C 104.856 376.800,106.793 377.741,106.797 378.100 C 106.799 378.265,107.160 378.400,107.600 378.400 C 108.040 378.400,108.400 378.580,108.400 378.800 C 108.400 379.020,108.745 379.200,109.167 379.200 C 109.588 379.200,109.993 379.335,110.067 379.500 C 110.255 379.924,115.199 382.400,115.856 382.400 C 116.155 382.400,116.400 382.580,116.400 382.800 C 116.400 383.020,116.850 383.200,117.400 383.200 C 117.950 383.200,118.400 383.380,118.400 383.600 C 118.400 383.820,118.760 384.000,119.200 384.000 C 119.640 384.000,120.000 384.180,120.000 384.400 C 120.000 384.620,120.360 384.800,120.800 384.800 C 121.240 384.800,121.600 384.941,121.600 385.113 C 121.600 385.285,122.095 385.466,122.700 385.516 C 123.305 385.566,123.860 385.785,123.933 386.003 C 124.007 386.222,124.324 386.400,124.639 386.400 C 124.953 386.400,125.523 386.559,125.905 386.753 C 126.621 387.117,128.246 387.811,130.000 388.500 C 130.550 388.716,131.313 389.052,131.695 389.247 C 132.077 389.441,132.741 389.600,133.171 389.600 C 133.601 389.600,134.064 389.780,134.200 390.000 C 134.336 390.220,134.857 390.400,135.357 390.400 C 135.857 390.400,136.392 390.525,136.545 390.678 C 136.840 390.973,137.301 391.089,139.700 391.468 C 140.525 391.599,141.200 391.862,141.200 392.053 C 141.200 392.244,141.931 392.400,142.824 392.400 C 143.804 392.400,144.349 392.558,144.200 392.800 C 144.053 393.038,144.529 393.200,145.376 393.200 C 146.159 393.200,146.800 393.380,146.800 393.600 C 146.800 393.820,147.430 394.000,148.200 394.000 C 148.970 394.000,149.600 394.180,149.600 394.400 C 149.600 394.620,150.320 394.800,151.200 394.800 C 152.080 394.800,152.800 394.980,152.800 395.200 C 152.800 395.420,153.509 395.600,154.376 395.600 C 155.243 395.600,156.064 395.780,156.200 396.000 C 156.336 396.220,157.247 396.400,158.224 396.400 C 159.201 396.400,160.000 396.580,160.000 396.800 C 160.000 397.020,160.900 397.200,162.000 397.200 C 163.100 397.200,164.000 397.380,164.000 397.600 C 164.000 397.826,165.133 398.000,166.600 398.000 C 168.067 398.000,169.200 398.174,169.200 398.400 C 169.200 398.621,170.240 398.800,171.520 398.800 C 172.843 398.800,174.055 399.015,174.340 399.300 C 175.071 400.031,224.856 400.031,225.100 399.300 C 225.212 398.964,226.176 398.800,228.033 398.800 C 229.611 398.800,230.800 398.628,230.800 398.400 C 230.800 398.180,231.779 398.000,232.976 398.000 C 234.173 398.000,235.264 397.820,235.400 397.600 C 235.536 397.380,236.547 397.200,237.647 397.200 C 238.879 397.200,239.552 397.046,239.400 396.800 C 239.248 396.553,239.929 396.400,241.176 396.400 C 242.289 396.400,243.200 396.220,243.200 396.000 C 243.200 395.780,243.999 395.600,244.976 395.600 C 245.953 395.600,246.864 395.420,247.000 395.200 C 247.136 394.980,247.957 394.800,248.824 394.800 C 249.691 394.800,250.400 394.620,250.400 394.400 C 250.400 394.180,250.929 394.000,251.576 394.000 C 252.223 394.000,252.864 393.820,253.000 393.600 C 253.136 393.380,253.867 393.200,254.624 393.200 C 255.381 393.200,256.000 393.020,256.000 392.800 C 256.000 392.580,256.439 392.400,256.976 392.400 C 257.513 392.400,258.064 392.220,258.200 392.000 C 258.336 391.780,258.916 391.600,259.488 391.600 C 260.739 391.600,264.945 390.338,265.133 389.906 C 265.207 389.738,265.781 389.600,266.410 389.600 C 267.038 389.600,267.664 389.420,267.800 389.200 C 267.936 388.980,268.487 388.800,269.024 388.800 C 269.561 388.800,270.000 388.620,270.000 388.400 C 270.000 388.180,270.349 388.000,270.776 388.000 C 271.203 388.000,271.664 387.820,271.800 387.600 C 271.936 387.380,272.476 387.200,273.000 387.200 C 273.524 387.200,274.064 387.020,274.200 386.800 C 274.336 386.580,274.797 386.400,275.224 386.400 C 275.651 386.400,276.000 386.220,276.000 386.000 C 276.000 385.780,276.360 385.600,276.800 385.600 C 277.240 385.600,277.600 385.420,277.600 385.200 C 277.600 384.980,278.039 384.800,278.576 384.800 C 279.113 384.800,279.664 384.620,279.800 384.400 C 279.936 384.180,280.397 384.000,280.824 384.000 C 281.251 384.000,281.600 383.820,281.600 383.600 C 281.600 383.380,281.960 383.200,282.400 383.200 C 282.840 383.200,283.200 383.020,283.200 382.800 C 283.200 382.580,283.560 382.400,284.000 382.400 C 284.440 382.400,284.800 382.220,284.800 382.000 C 284.800 381.780,285.149 381.600,285.576 381.600 C 286.003 381.600,286.464 381.420,286.600 381.200 C 286.736 380.980,287.197 380.800,287.624 380.800 C 288.051 380.800,288.400 380.620,288.400 380.400 C 288.400 380.180,288.760 380.000,289.200 380.000 C 289.640 380.000,290.000 379.820,290.000 379.600 C 290.000 379.380,290.360 379.200,290.800 379.200 C 291.240 379.200,291.600 379.048,291.600 378.863 C 291.600 378.677,292.455 378.092,293.500 377.563 C 294.545 377.033,295.460 376.465,295.533 376.300 C 295.607 376.135,296.012 376.000,296.433 376.000 C 296.855 376.000,297.200 375.820,297.200 375.600 C 297.200 375.380,297.487 375.200,297.838 375.200 C 298.408 375.200,300.683 374.117,301.200 373.600 C 301.310 373.490,301.760 373.203,302.200 372.962 C 304.105 371.921,305.013 371.387,305.200 371.199 C 305.310 371.089,305.892 370.745,306.493 370.435 C 307.095 370.126,307.905 369.586,308.293 369.236 C 308.682 368.886,309.495 368.345,310.100 368.032 C 310.705 367.720,311.200 367.315,311.200 367.132 C 311.200 366.950,311.520 366.800,311.912 366.800 C 312.303 366.800,312.883 366.440,313.200 366.000 C 313.517 365.560,313.980 365.200,314.229 365.200 C 314.478 365.200,315.246 364.660,315.937 364.000 C 316.628 363.340,317.376 362.800,317.600 362.800 C 317.824 362.800,318.572 362.260,319.263 361.600 C 319.954 360.940,320.680 360.400,320.878 360.400 C 321.075 360.400,321.686 359.950,322.236 359.400 C 322.786 358.850,323.365 358.400,323.522 358.400 C 323.679 358.400,324.776 357.500,325.960 356.400 C 327.144 355.300,328.279 354.400,328.483 354.400 C 328.686 354.400,329.729 353.500,330.800 352.400 C 331.871 351.300,332.933 350.400,333.160 350.400 C 333.387 350.400,335.382 348.555,337.594 346.300 C 339.805 344.045,341.799 342.020,342.023 341.800 C 347.254 336.676,350.400 333.428,350.400 333.152 C 350.400 332.961,351.480 331.708,352.800 330.368 C 354.120 329.027,355.200 327.766,355.200 327.566 C 355.200 327.365,355.920 326.459,356.800 325.552 C 357.680 324.645,358.400 323.753,358.400 323.570 C 358.400 323.386,358.850 322.786,359.400 322.236 C 359.950 321.686,360.400 321.075,360.400 320.878 C 360.400 320.680,360.940 319.954,361.600 319.263 C 362.260 318.572,362.800 317.824,362.800 317.600 C 362.800 317.376,363.340 316.628,364.000 315.937 C 364.660 315.246,365.200 314.478,365.200 314.229 C 365.200 313.980,365.560 313.517,366.000 313.200 C 366.440 312.883,366.800 312.343,366.800 312.000 C 366.800 311.657,367.160 311.117,367.600 310.800 C 368.040 310.483,368.400 309.986,368.400 309.695 C 368.400 309.404,368.760 308.780,369.200 308.308 C 369.640 307.836,370.224 306.944,370.497 306.325 C 370.771 305.706,371.103 305.200,371.235 305.200 C 371.366 305.200,371.905 304.345,372.432 303.300 C 372.958 302.255,373.502 301.310,373.639 301.200 C 374.099 300.832,375.200 298.447,375.200 297.820 C 375.200 297.479,375.380 297.200,375.600 297.200 C 375.820 297.200,376.000 296.840,376.000 296.400 C 376.000 295.960,376.180 295.600,376.400 295.600 C 376.620 295.600,376.800 295.322,376.800 294.983 C 376.800 294.644,377.160 293.980,377.600 293.508 C 378.040 293.036,378.400 292.413,378.400 292.125 C 378.400 291.836,378.580 291.600,378.800 291.600 C 379.020 291.600,379.200 291.240,379.200 290.800 C 379.200 290.360,379.380 290.000,379.600 290.000 C 379.820 290.000,380.000 289.640,380.000 289.200 C 380.000 288.760,380.180 288.400,380.400 288.400 C 380.620 288.400,380.800 288.076,380.800 287.680 C 380.800 286.786,381.694 284.807,382.100 284.803 C 382.265 284.801,382.400 284.440,382.400 284.000 C 382.400 283.560,382.580 283.200,382.800 283.200 C 383.020 283.200,383.200 282.840,383.200 282.400 C 383.200 281.960,383.380 281.600,383.600 281.600 C 383.820 281.600,384.000 281.240,384.000 280.800 C 384.000 280.360,384.141 280.000,384.313 280.000 C 384.485 280.000,384.666 279.505,384.716 278.900 C 384.766 278.295,384.985 277.740,385.203 277.667 C 385.422 277.593,385.600 277.188,385.600 276.767 C 385.600 276.345,385.780 276.000,386.000 276.000 C 386.220 276.000,386.400 275.651,386.400 275.224 C 386.400 274.797,386.580 274.336,386.800 274.200 C 387.020 274.064,387.200 273.513,387.200 272.976 C 387.200 272.439,387.380 272.000,387.600 272.000 C 387.820 272.000,388.000 271.550,388.000 271.000 C 388.000 270.450,388.180 270.000,388.400 270.000 C 388.620 270.000,388.800 269.638,388.800 269.195 C 388.800 268.752,388.971 268.077,389.181 267.695 C 389.834 266.505,391.157 262.281,391.437 260.491 C 391.585 259.551,391.861 258.686,392.053 258.568 C 392.244 258.449,392.400 257.834,392.400 257.200 C 392.400 256.566,392.580 255.936,392.800 255.800 C 393.020 255.664,393.200 255.034,393.200 254.400 C 393.200 253.766,393.380 253.136,393.600 253.000 C 393.820 252.864,394.000 252.223,394.000 251.576 C 394.000 250.929,394.180 250.400,394.400 250.400 C 394.620 250.400,394.800 249.680,394.800 248.800 C 394.800 247.920,394.980 247.200,395.200 247.200 C 395.420 247.200,395.600 246.300,395.600 245.200 C 395.600 244.100,395.762 243.200,395.960 243.200 C 396.296 243.200,396.483 242.225,397.049 237.500 C 397.175 236.455,397.440 235.600,397.639 235.600 C 397.837 235.600,398.000 234.531,398.000 233.224 C 398.000 231.917,398.180 230.736,398.400 230.600 C 398.620 230.464,398.800 229.208,398.800 227.810 C 398.800 226.131,398.970 225.210,399.300 225.100 C 399.693 224.969,399.800 219.751,399.800 200.800 C 399.800 181.849,399.693 176.631,399.300 176.500 C 398.960 176.387,398.800 175.389,398.800 173.390 C 398.800 171.772,398.620 170.336,398.400 170.200 C 398.180 170.064,398.000 168.883,398.000 167.576 C 398.000 166.259,397.822 165.200,397.600 165.200 C 397.380 165.200,397.200 164.311,397.200 163.224 C 397.200 162.137,397.020 161.136,396.800 161.000 C 396.580 160.864,396.400 160.054,396.400 159.200 C 396.400 158.346,396.220 157.536,396.000 157.400 C 395.780 157.264,395.600 156.353,395.600 155.376 C 395.600 154.399,395.420 153.600,395.200 153.600 C 394.980 153.600,394.800 152.880,394.800 152.000 C 394.800 151.120,394.620 150.400,394.400 150.400 C 394.180 150.400,394.000 149.770,394.000 149.000 C 394.000 148.230,393.820 147.600,393.600 147.600 C 393.380 147.600,393.200 146.880,393.200 146.000 C 393.200 145.120,393.020 144.400,392.800 144.400 C 392.580 144.400,392.400 143.860,392.400 143.200 C 392.400 142.540,392.241 142.000,392.046 142.000 C 391.851 142.000,391.569 141.013,391.418 139.806 C 391.267 138.600,390.977 137.509,390.772 137.383 C 390.567 137.256,390.400 136.724,390.400 136.200 C 390.400 135.676,390.220 135.136,390.000 135.000 C 389.780 134.864,389.600 134.324,389.600 133.800 C 389.600 133.276,389.420 132.736,389.200 132.600 C 388.980 132.464,388.800 132.001,388.800 131.571 C 388.800 131.141,388.620 130.432,388.400 129.995 C 388.180 129.558,387.820 128.842,387.600 128.405 C 387.380 127.968,387.200 127.338,387.200 127.005 C 387.200 126.672,387.020 126.400,386.800 126.400 C 386.580 126.400,386.400 125.961,386.400 125.424 C 386.400 124.887,386.220 124.336,386.000 124.200 C 385.780 124.064,385.600 123.603,385.600 123.176 C 385.600 122.749,385.420 122.400,385.200 122.400 C 384.980 122.400,384.800 122.164,384.800 121.875 C 384.800 121.586,384.440 120.605,384.000 119.694 C 383.560 118.784,383.200 117.760,383.200 117.419 C 383.200 117.079,383.065 116.799,382.900 116.797 C 382.541 116.793,381.600 114.856,381.600 114.120 C 381.600 113.834,381.420 113.600,381.200 113.600 C 380.980 113.600,380.800 113.240,380.800 112.800 C 380.800 112.360,380.620 112.000,380.400 112.000 C 380.180 112.000,380.000 111.640,380.000 111.200 C 380.000 110.760,379.820 110.400,379.600 110.400 C 379.380 110.400,379.200 110.130,379.200 109.800 C 379.200 109.470,379.020 109.200,378.800 109.200 C 378.580 109.200,378.400 108.840,378.400 108.400 C 378.400 107.960,378.220 107.600,378.000 107.600 C 377.780 107.600,377.600 107.240,377.600 106.800 C 377.600 106.360,377.420 106.000,377.200 106.000 C 376.980 106.000,376.800 105.640,376.800 105.200 C 376.800 104.760,376.620 104.400,376.400 104.400 C 376.180 104.400,376.000 104.040,376.000 103.600 C 376.000 103.160,375.820 102.800,375.600 102.800 C 375.380 102.800,375.200 102.453,375.200 102.029 C 375.200 101.604,374.974 101.019,374.698 100.729 C 374.421 100.438,373.763 99.345,373.235 98.300 C 372.706 97.255,372.166 96.400,372.035 96.400 C 371.903 96.400,371.540 95.815,371.228 95.100 C 370.916 94.385,370.332 93.509,369.930 93.153 C 369.529 92.797,369.200 92.278,369.200 92.000 C 369.200 91.722,368.885 91.203,368.500 90.847 C 368.115 90.491,367.742 89.930,367.670 89.600 C 367.599 89.270,367.374 88.940,367.170 88.867 C 366.967 88.793,366.800 88.505,366.800 88.226 C 366.800 87.947,366.260 87.154,365.600 86.463 C 364.940 85.772,364.400 84.975,364.400 84.692 C 364.400 84.409,364.040 83.917,363.600 83.600 C 363.160 83.283,362.800 82.820,362.800 82.571 C 362.800 82.322,362.260 81.554,361.600 80.863 C 360.940 80.172,360.400 79.426,360.400 79.204 C 360.400 78.982,360.220 78.800,360.000 78.800 C 359.780 78.800,359.600 78.500,359.600 78.133 C 359.600 77.767,359.486 77.581,359.346 77.721 C 359.206 77.860,358.538 77.125,357.861 76.087 C 357.184 75.049,356.308 73.909,355.915 73.553 C 355.522 73.197,355.200 72.711,355.200 72.473 C 355.200 72.235,354.885 71.856,354.500 71.632 C 354.115 71.408,353.947 71.219,354.127 71.212 C 354.306 71.205,353.541 70.312,352.427 69.226 C 351.312 68.140,350.400 67.085,350.400 66.882 C 350.400 66.679,348.960 65.092,347.199 63.356 C 342.232 58.459,341.811 58.036,338.051 54.170 C 336.108 52.173,333.908 50.106,333.160 49.576 C 332.412 49.047,331.210 48.026,330.488 47.308 C 329.767 46.590,328.687 45.689,328.088 45.305 C 326.714 44.423,326.197 44.020,324.999 42.900 C 324.470 42.405,323.888 42.000,323.706 42.000 C 323.525 42.000,323.117 41.640,322.800 41.200 C 322.483 40.760,321.983 40.400,321.688 40.400 C 321.394 40.400,321.264 40.220,321.400 40.000 C 321.536 39.780,321.266 39.600,320.800 39.600 C 320.334 39.600,320.064 39.420,320.200 39.200 C 320.336 38.980,320.206 38.800,319.912 38.800 C 319.617 38.800,319.117 38.440,318.800 38.000 C 318.483 37.560,317.991 37.200,317.708 37.200 C 317.425 37.200,316.628 36.660,315.937 36.000 C 315.246 35.340,314.478 34.800,314.229 34.800 C 313.980 34.800,313.517 34.440,313.200 34.000 C 312.883 33.560,312.343 33.200,312.000 33.200 C 311.657 33.200,311.117 32.840,310.800 32.400 C 310.483 31.960,309.903 31.600,309.512 31.600 C 309.120 31.600,308.800 31.458,308.800 31.285 C 308.800 31.111,307.765 30.351,306.500 29.595 C 305.235 28.839,304.110 28.123,304.000 28.004 C 303.890 27.885,303.037 27.431,302.105 26.994 C 301.172 26.557,300.407 26.065,300.405 25.900 C 300.402 25.735,300.040 25.600,299.600 25.600 C 299.160 25.600,298.800 25.420,298.800 25.200 C 298.800 24.980,298.440 24.800,298.000 24.800 C 297.560 24.800,297.200 24.654,297.200 24.475 C 297.200 24.296,296.570 23.902,295.800 23.600 C 295.030 23.298,294.400 22.904,294.400 22.725 C 294.400 22.546,294.130 22.400,293.800 22.400 C 293.470 22.400,293.200 22.209,293.200 21.976 C 293.200 21.743,293.035 21.655,292.832 21.780 C 292.630 21.905,292.193 21.736,291.861 21.404 C 291.529 21.072,291.047 20.800,290.790 20.800 C 290.534 20.800,289.846 20.479,289.262 20.086 C 288.678 19.693,287.660 19.132,287.000 18.839 C 286.340 18.546,285.487 18.148,285.105 17.953 C 284.723 17.759,284.138 17.600,283.805 17.600 C 283.472 17.600,283.200 17.420,283.200 17.200 C 283.200 16.980,282.840 16.800,282.400 16.800 C 281.960 16.800,281.600 16.620,281.600 16.400 C 281.600 16.180,281.240 16.000,280.800 16.000 C 280.360 16.000,280.000 15.820,280.000 15.600 C 280.000 15.380,279.460 15.200,278.800 15.200 C 278.140 15.200,277.600 15.020,277.600 14.800 C 277.600 14.580,277.240 14.400,276.800 14.400 C 276.360 14.400,276.000 14.220,276.000 14.000 C 276.000 13.780,275.728 13.600,275.395 13.600 C 275.062 13.600,274.477 13.433,274.095 13.229 C 273.424 12.871,272.413 12.514,272.000 12.490 C 271.890 12.484,270.721 12.001,269.403 11.418 C 268.084 10.835,266.239 10.253,265.303 10.125 C 264.366 9.996,263.600 9.736,263.600 9.546 C 263.600 9.356,263.075 9.200,262.433 9.200 C 261.792 9.200,261.207 9.028,261.133 8.818 C 261.060 8.607,260.325 8.390,259.500 8.336 C 258.675 8.281,258.000 8.093,258.000 7.918 C 258.000 7.743,257.550 7.600,257.000 7.600 C 256.450 7.600,256.000 7.420,256.000 7.200 C 256.000 6.980,255.471 6.800,254.824 6.800 C 254.177 6.800,253.536 6.620,253.400 6.400 C 253.264 6.180,252.533 6.000,251.776 6.000 C 251.019 6.000,250.400 5.820,250.400 5.600 C 250.400 5.380,249.680 5.200,248.800 5.200 C 247.920 5.200,247.200 5.020,247.200 4.800 C 247.200 4.580,246.300 4.400,245.200 4.400 C 244.100 4.400,243.200 4.220,243.200 4.000 C 243.200 3.780,242.401 3.600,241.424 3.600 C 240.447 3.600,239.536 3.420,239.400 3.200 C 239.264 2.980,238.353 2.800,237.376 2.800 C 236.399 2.800,235.600 2.620,235.600 2.400 C 235.600 2.178,234.544 2.000,233.233 2.000 C 231.932 2.000,230.807 1.833,230.733 1.629 C 230.660 1.426,229.430 1.216,228.000 1.163 C 226.570 1.111,225.277 0.882,225.127 0.654 C 224.783 0.132,184.354 -0.056,178.600 0.438 M70.232 115.440 C 71.534 117.112,72.935 118.867,73.345 119.340 C 73.755 119.813,74.565 120.830,75.145 121.600 C 75.725 122.370,76.428 123.241,76.706 123.535 C 76.984 123.829,77.703 124.729,78.304 125.535 C 78.904 126.341,79.501 127.090,79.630 127.200 C 79.759 127.310,81.998 130.100,84.605 133.400 C 87.212 136.700,89.456 139.490,89.592 139.600 C 89.727 139.710,90.276 140.430,90.811 141.200 C 91.345 141.970,92.147 142.991,92.591 143.468 C 93.036 143.945,94.522 145.745,95.892 147.468 C 98.693 150.987,104.197 157.884,104.935 158.800 C 105.201 159.130,108.809 163.630,112.953 168.800 C 117.097 173.970,121.142 178.995,121.944 179.967 C 122.745 180.938,124.030 182.558,124.800 183.566 C 125.570 184.573,126.428 185.639,126.706 185.934 C 126.984 186.228,127.703 187.129,128.304 187.935 C 128.904 188.741,129.496 189.490,129.618 189.600 C 129.741 189.710,130.911 191.150,132.219 192.800 C 133.527 194.450,134.687 195.890,134.798 196.000 C 134.909 196.110,135.628 197.010,136.394 198.000 C 137.749 199.749,138.355 200.501,139.600 201.980 C 139.930 202.373,140.650 203.281,141.200 204.000 C 141.750 204.719,142.535 205.688,142.945 206.153 C 143.355 206.619,144.165 207.630,144.745 208.400 C 145.325 209.170,146.028 210.041,146.306 210.335 C 146.584 210.629,147.303 211.529,147.904 212.335 C 148.504 213.141,149.088 213.890,149.202 214.000 C 149.315 214.110,151.554 216.892,154.178 220.182 C 156.802 223.472,159.173 226.442,159.448 226.782 C 159.724 227.122,162.401 230.460,165.397 234.200 C 168.393 237.940,171.062 241.270,171.328 241.600 C 171.594 241.930,172.439 243.010,173.206 244.000 C 173.972 244.990,174.693 245.890,174.806 246.000 C 174.920 246.110,175.505 246.799,176.106 247.531 L 177.200 248.861 177.200 184.631 L 177.200 120.400 165.000 120.400 L 152.800 120.400 152.800 116.397 L 152.800 112.395 182.700 112.497 L 212.600 112.600 212.600 116.400 L 212.600 120.200 201.200 120.400 L 189.800 120.600 189.600 202.967 L 189.400 285.333 188.400 285.615 C 187.414 285.893,185.209 286.383,181.100 287.236 C 179.945 287.476,178.337 287.861,177.527 288.092 C 175.633 288.630,178.674 292.124,154.290 261.400 C 149.924 255.900,146.136 251.130,145.871 250.800 C 145.606 250.470,144.761 249.394,143.994 248.410 C 143.228 247.425,142.372 246.375,142.094 246.075 C 141.816 245.776,141.097 244.871,140.496 244.065 C 139.896 243.259,139.306 242.510,139.186 242.400 C 139.066 242.290,136.402 238.960,133.266 235.000 C 130.131 231.040,127.345 227.530,127.077 227.200 C 126.809 226.870,125.961 225.794,125.194 224.810 C 124.428 223.825,123.572 222.775,123.294 222.475 C 123.016 222.176,122.296 221.275,121.694 220.473 C 121.092 219.672,120.298 218.652,119.928 218.208 C 118.845 216.906,112.291 208.648,111.200 207.211 C 110.650 206.486,109.930 205.578,109.600 205.192 C 109.270 204.806,108.460 203.806,107.800 202.969 C 107.140 202.132,106.004 200.717,105.275 199.824 C 103.314 197.420,103.162 197.226,101.014 194.400 C 99.927 192.970,98.936 191.710,98.812 191.600 C 98.512 191.333,96.840 189.261,95.600 187.618 C 95.050 186.889,94.330 185.981,94.000 185.600 C 93.670 185.219,92.950 184.314,92.400 183.589 C 91.850 182.864,88.700 178.906,85.400 174.793 C 82.100 170.681,78.950 166.726,78.400 166.005 C 77.850 165.284,77.130 164.378,76.800 163.992 C 76.470 163.606,75.724 162.685,75.142 161.945 C 74.560 161.205,72.521 158.620,70.610 156.200 C 68.699 153.780,66.205 150.596,65.068 149.124 C 63.931 147.653,62.865 146.438,62.700 146.424 C 62.535 146.411,62.400 176.190,62.400 212.600 L 62.400 278.800 72.151 278.800 C 84.965 278.800,86.800 279.604,86.800 285.221 L 86.800 286.805 56.900 286.703 L 27.000 286.600 27.000 282.800 L 27.000 279.000 38.501 278.894 L 50.002 278.788 49.901 199.694 L 49.800 120.600 38.400 120.400 L 27.000 120.200 26.883 116.833 C 26.818 114.982,26.858 113.227,26.970 112.933 C 27.137 112.499,30.933 112.400,47.519 112.400 L 67.863 112.400 70.232 115.440 M320.600 112.949 C 329.085 114.374,340.349 117.768,342.577 119.573 C 342.810 119.761,343.720 120.312,344.600 120.797 C 352.491 125.150,361.200 136.644,361.200 142.705 C 361.200 143.171,361.358 143.651,361.552 143.770 C 362.120 144.121,362.455 152.753,362.019 155.800 C 361.333 160.600,361.123 161.600,360.756 161.827 C 360.560 161.948,360.400 162.476,360.400 163.000 C 360.400 163.524,360.220 164.064,360.000 164.200 C 359.780 164.336,359.600 164.797,359.600 165.224 C 359.600 165.651,359.420 166.000,359.200 166.000 C 358.980 166.000,358.800 166.265,358.800 166.588 C 358.800 167.149,358.536 167.676,356.357 171.461 C 352.767 177.696,346.547 183.770,339.800 187.629 C 337.122 189.160,333.826 190.774,333.349 190.787 C 332.123 190.822,331.912 192.000,333.132 192.000 C 333.809 192.000,334.776 192.161,335.281 192.358 C 335.787 192.555,337.010 192.933,338.000 193.197 C 338.990 193.462,340.113 193.840,340.495 194.039 C 340.877 194.238,341.464 194.400,341.800 194.400 C 342.136 194.400,342.723 194.559,343.105 194.753 C 343.487 194.948,344.250 195.289,344.800 195.511 C 363.164 202.934,373.372 217.204,373.336 235.400 C 373.328 239.630,372.469 246.053,371.625 248.200 C 371.452 248.640,371.081 249.720,370.801 250.600 C 365.776 266.358,350.152 279.769,331.435 284.390 C 322.364 286.630,323.155 286.600,273.000 286.600 L 226.600 286.600 226.600 282.800 L 226.600 279.000 238.200 278.800 L 249.800 278.600 249.800 199.600 L 249.800 120.600 238.200 120.400 L 226.600 120.200 226.483 116.833 C 226.418 114.982,226.459 113.224,226.573 112.927 C 226.795 112.348,317.149 112.369,320.600 112.949 M275.200 154.200 L 275.200 188.000 289.300 187.993 C 311.663 187.982,318.197 186.171,326.796 177.600 C 338.695 165.740,338.401 139.812,326.238 128.470 C 324.207 126.576,319.558 123.600,318.631 123.600 C 318.310 123.600,317.936 123.420,317.800 123.200 C 317.664 122.980,317.124 122.800,316.600 122.800 C 316.076 122.800,315.536 122.620,315.400 122.400 C 315.264 122.180,314.653 122.000,314.043 122.000 C 313.433 122.000,312.799 121.865,312.634 121.700 C 311.821 120.886,304.008 120.443,290.100 120.422 L 275.200 120.400 275.200 154.200 M275.200 237.611 L 275.200 278.823 293.900 278.671 C 305.284 278.579,313.382 278.349,314.600 278.085 C 315.700 277.845,317.140 277.535,317.800 277.395 C 319.739 276.983,325.747 274.240,326.702 273.331 C 326.979 273.068,327.526 272.751,327.918 272.626 C 329.054 272.265,336.574 264.331,337.829 262.168 C 338.457 261.086,339.112 260.140,339.285 260.067 C 339.458 259.993,339.600 259.719,339.600 259.456 C 339.600 259.194,340.134 257.904,340.787 256.590 C 341.441 255.275,341.981 253.896,341.987 253.524 C 341.994 253.152,342.180 252.736,342.400 252.600 C 342.620 252.464,342.800 251.859,342.800 251.256 C 342.800 250.653,342.962 249.989,343.159 249.780 C 344.096 248.788,344.924 237.083,344.438 231.693 C 343.966 226.461,343.021 221.784,342.352 221.370 C 342.159 221.251,342.000 220.801,342.000 220.371 C 342.000 219.941,341.831 219.277,341.624 218.895 C 341.417 218.513,340.679 217.030,339.983 215.600 C 335.462 206.307,327.521 199.962,317.782 197.860 C 311.779 196.564,308.906 196.400,292.193 196.400 L 275.200 196.400 275.200 237.611 " stroke="none" fill="#dbdbdb" fill-rule="evenodd"></path><path id="path2" d="M27.370 112.933 C 27.258 113.227,27.227 114.982,27.301 116.833 L 27.437 120.200 27.519 116.504 L 27.600 112.808 47.300 112.700 L 67.000 112.592 47.287 112.496 C 31.160 112.417,27.538 112.497,27.370 112.933 M153.462 112.700 C 153.293 112.972,174.355 112.969,201.400 112.692 C 207.120 112.634,198.716 112.544,182.724 112.493 C 166.732 112.442,153.564 112.535,153.462 112.700 M227.280 112.880 C 226.755 113.405,226.616 118.690,227.106 119.463 C 227.268 119.718,227.400 118.368,227.400 116.463 L 227.400 113.000 268.800 112.797 L 310.200 112.594 268.980 112.497 C 237.344 112.423,227.648 112.512,227.280 112.880 M314.105 113.087 C 314.714 113.179,315.614 113.177,316.105 113.082 C 316.597 112.987,316.100 112.911,315.000 112.914 C 313.900 112.917,313.497 112.995,314.105 113.087 M318.300 113.482 C 318.795 113.578,319.605 113.578,320.100 113.482 C 320.595 113.387,320.190 113.309,319.200 113.309 C 318.210 113.309,317.805 113.387,318.300 113.482 M323.700 114.276 C 324.085 114.376,324.715 114.376,325.100 114.276 C 325.485 114.175,325.170 114.093,324.400 114.093 C 323.630 114.093,323.315 114.175,323.700 114.276 M328.033 114.944 C 328.125 115.023,328.740 115.208,329.400 115.356 C 330.276 115.552,330.438 115.515,330.000 115.218 C 329.460 114.853,327.632 114.598,328.033 114.944 M49.990 120.263 C 50.562 120.547,50.562 278.653,49.990 278.937 C 49.765 279.049,49.810 279.094,50.090 279.037 C 50.843 278.884,50.843 120.316,50.090 120.163 C 49.810 120.107,49.764 120.151,49.990 120.263 M177.502 184.682 C 177.595 243.040,177.545 249.264,176.982 249.048 C 176.624 248.911,176.462 248.978,176.603 249.205 C 176.737 249.422,177.107 249.600,177.424 249.600 C 178.056 249.600,178.331 120.652,177.700 120.262 C 177.535 120.160,177.446 149.149,177.502 184.682 M188.986 120.500 C 188.667 121.348,188.581 285.136,188.900 284.938 C 189.065 284.836,189.200 247.788,189.200 202.610 C 189.200 137.270,189.302 120.425,189.700 120.265 C 190.092 120.107,190.089 120.056,189.687 120.032 C 189.406 120.014,189.090 120.225,188.986 120.500 M249.800 199.600 C 249.800 243.338,249.935 279.040,250.100 278.938 C 250.492 278.696,250.492 120.504,250.100 120.262 C 249.935 120.160,249.800 155.862,249.800 199.600 M303.312 120.295 C 304.364 120.377,305.984 120.376,306.912 120.292 C 307.840 120.208,306.980 120.141,305.000 120.142 C 303.020 120.143,302.260 120.212,303.312 120.295 M346.033 122.530 C 346.125 122.601,346.830 123.066,347.600 123.563 L 349.000 124.466 347.800 123.435 C 347.140 122.868,346.435 122.403,346.233 122.402 C 346.032 122.401,345.942 122.458,346.033 122.530 M349.243 124.900 C 349.339 124.955,350.494 125.990,351.809 127.200 L 354.200 129.400 352.014 127.100 C 350.811 125.835,349.656 124.800,349.447 124.800 C 349.238 124.800,349.146 124.845,349.243 124.900 M327.183 128.900 C 328.841 130.666,329.200 130.984,329.200 130.683 C 329.200 130.619,328.345 129.764,327.300 128.783 L 325.400 127.000 327.183 128.900 M83.196 132.794 C 83.890 133.671,84.667 134.518,84.923 134.676 C 85.178 134.834,84.693 134.116,83.845 133.081 C 82.997 132.047,82.220 131.200,82.118 131.200 C 82.016 131.200,82.501 131.918,83.196 132.794 M329.615 131.400 C 329.617 131.620,329.986 132.250,330.436 132.800 C 330.979 133.464,331.115 133.531,330.840 133.000 C 330.166 131.695,329.612 130.972,329.615 131.400 M356.815 133.400 C 356.817 133.620,357.186 134.250,357.636 134.800 C 358.179 135.464,358.315 135.531,358.040 135.000 C 357.366 133.695,356.812 132.972,356.815 133.400 M331.878 135.395 C 332.244 136.162,332.614 136.719,332.701 136.632 C 332.884 136.449,331.670 134.000,331.396 134.000 C 331.295 134.000,331.512 134.628,331.878 135.395 M360.868 143.800 C 360.862 144.240,361.011 144.960,361.200 145.400 C 361.638 146.419,361.638 145.368,361.200 144.000 C 360.943 143.196,360.877 143.157,360.868 143.800 M61.699 212.067 C 61.780 265.875,61.900 278.954,62.310 279.037 C 62.591 279.094,62.636 279.049,62.410 278.937 C 62.132 278.799,62.000 257.223,62.000 212.153 L 62.000 145.572 62.900 146.051 C 63.716 146.486,63.749 146.469,63.251 145.865 C 61.538 143.790,61.592 141.505,61.699 212.067 M335.270 145.800 C 335.257 146.240,335.395 147.320,335.577 148.200 C 335.855 149.545,335.908 149.609,335.907 148.600 C 335.905 147.199,335.308 144.570,335.270 145.800 M65.200 148.800 C 65.897 149.680,66.557 150.400,66.667 150.400 C 66.777 150.400,66.297 149.680,65.600 148.800 C 64.903 147.920,64.243 147.200,64.133 147.200 C 64.023 147.200,64.503 147.920,65.200 148.800 M361.740 151.600 C 361.740 153.470,361.809 154.235,361.893 153.300 C 361.977 152.365,361.977 150.835,361.893 149.900 C 361.809 148.965,361.740 149.730,361.740 151.600 M68.175 152.532 C 68.791 153.339,69.376 154.000,69.475 154.000 C 69.753 154.000,68.021 151.660,67.509 151.344 C 67.259 151.189,67.559 151.724,68.175 152.532 M361.000 158.000 C 360.848 158.691,360.807 159.341,360.909 159.442 C 361.011 159.544,361.209 159.053,361.350 158.350 C 361.683 156.683,361.360 156.360,361.000 158.000 M114.487 171.784 C 115.209 172.766,115.947 173.576,116.127 173.584 C 116.307 173.593,115.790 172.790,114.979 171.800 C 113.083 169.486,112.790 169.477,114.487 171.784 M355.846 171.000 C 355.491 171.550,354.909 172.495,354.553 173.100 L 353.905 174.200 354.710 173.226 C 355.660 172.076,356.921 170.000,356.669 170.000 C 356.571 170.000,356.201 170.450,355.846 171.000 M331.908 171.300 C 331.033 172.649,330.248 174.256,330.687 173.800 C 331.248 173.217,332.898 170.400,332.679 170.400 C 332.576 170.400,332.229 170.805,331.908 171.300 M83.554 171.936 C 83.999 172.560,84.679 173.325,85.065 173.636 C 85.452 173.946,85.160 173.435,84.417 172.500 C 82.891 170.580,82.325 170.210,83.554 171.936 M117.375 175.332 C 117.991 176.139,118.576 176.800,118.675 176.800 C 118.953 176.800,117.221 174.460,116.709 174.144 C 116.459 173.989,116.759 174.524,117.375 175.332 M86.800 176.000 C 87.497 176.880,88.157 177.600,88.267 177.600 C 88.377 177.600,87.897 176.880,87.200 176.000 C 86.503 175.120,85.843 174.400,85.733 174.400 C 85.623 174.400,86.103 175.120,86.800 176.000 M326.585 178.500 L 324.600 180.600 326.700 178.615 C 328.651 176.771,328.983 176.400,328.685 176.400 C 328.622 176.400,327.677 177.345,326.585 178.500 M119.200 177.379 C 119.200 177.710,125.226 185.200,125.492 185.200 C 125.604 185.200,125.080 184.435,124.328 183.500 C 123.575 182.565,122.113 180.748,121.079 179.463 C 120.046 178.178,119.200 177.240,119.200 177.379 M322.785 181.629 L 321.400 182.858 322.900 181.781 C 324.226 180.830,324.657 180.400,324.285 180.400 C 324.222 180.400,323.547 180.953,322.785 181.629 M346.278 182.234 C 345.660 182.765,345.300 183.194,345.478 183.187 C 345.921 183.168,347.751 181.617,347.557 181.424 C 347.470 181.338,346.895 181.703,346.278 182.234 M95.954 187.536 C 96.399 188.160,97.079 188.925,97.465 189.236 C 97.852 189.546,97.560 189.035,96.817 188.100 C 95.291 186.180,94.725 185.810,95.954 187.536 M310.200 187.200 C 309.696 187.417,309.622 187.544,310.000 187.544 C 310.330 187.544,310.960 187.389,311.400 187.200 C 311.904 186.983,311.978 186.856,311.600 186.856 C 311.270 186.856,310.640 187.011,310.200 187.200 M305.600 188.000 C 304.233 188.288,304.228 188.295,305.400 188.319 C 306.060 188.333,306.960 188.189,307.400 188.000 C 308.362 187.587,307.564 187.587,305.600 188.000 M333.158 190.132 C 330.964 191.117,330.234 192.442,331.924 192.372 C 332.485 192.349,332.468 192.292,331.827 192.041 C 330.950 191.698,331.155 191.500,333.600 190.333 C 335.172 189.583,334.780 189.405,333.158 190.132 M99.200 191.600 C 99.897 192.480,100.557 193.200,100.667 193.200 C 100.777 193.200,100.297 192.480,99.600 191.600 C 98.903 190.720,98.243 190.000,98.133 190.000 C 98.023 190.000,98.503 190.720,99.200 191.600 M334.000 192.782 C 334.330 193.005,334.945 193.191,335.367 193.194 C 336.390 193.202,336.071 192.973,334.600 192.644 C 333.724 192.448,333.562 192.485,334.000 192.782 M339.600 194.382 C 339.930 194.605,340.545 194.791,340.967 194.794 C 341.990 194.802,341.671 194.573,340.200 194.244 C 339.324 194.048,339.162 194.085,339.600 194.382 M310.433 196.146 C 310.525 196.226,311.590 196.394,312.800 196.519 C 314.220 196.666,314.646 196.629,314.000 196.413 C 313.009 196.083,310.113 195.865,310.433 196.146 M316.433 196.944 C 316.525 197.023,317.140 197.208,317.800 197.356 C 318.676 197.552,318.838 197.515,318.400 197.218 C 317.860 196.853,316.032 196.598,316.433 196.944 M354.400 200.925 C 354.400 201.024,355.061 201.609,355.868 202.225 C 356.676 202.841,357.211 203.141,357.056 202.891 C 356.740 202.379,354.400 200.647,354.400 200.925 M358.488 204.213 C 359.086 204.843,359.647 205.277,359.735 205.179 C 359.823 205.080,359.333 204.565,358.647 204.034 L 357.400 203.069 358.488 204.213 M333.400 205.600 C 334.259 206.480,335.052 207.200,335.162 207.200 C 335.272 207.200,334.659 206.480,333.800 205.600 C 332.941 204.720,332.148 204.000,332.038 204.000 C 331.928 204.000,332.541 204.720,333.400 205.600 M113.275 209.300 C 114.029 210.235,115.691 212.305,116.968 213.900 C 118.245 215.495,119.382 216.800,119.493 216.800 C 119.605 216.800,119.079 216.035,118.325 215.100 C 117.571 214.165,115.909 212.095,114.632 210.500 C 113.355 208.905,112.218 207.600,112.107 207.600 C 111.995 207.600,112.521 208.365,113.275 209.300 M362.400 208.125 C 362.400 208.194,362.973 208.779,363.674 209.425 L 364.949 210.600 363.974 209.322 C 363.147 208.237,362.400 207.669,362.400 208.125 M365.600 212.000 C 366.070 212.660,366.544 213.200,366.654 213.200 C 366.764 213.200,366.470 212.660,366.000 212.000 C 365.530 211.340,365.056 210.800,364.946 210.800 C 364.836 210.800,365.130 211.340,365.600 212.000 M369.246 218.200 C 369.253 218.420,369.606 219.320,370.029 220.200 C 370.452 221.080,370.686 221.350,370.549 220.800 C 370.267 219.667,369.225 217.588,369.246 218.200 M127.200 226.579 C 127.200 226.910,133.226 234.400,133.492 234.400 C 133.604 234.400,133.080 233.635,132.328 232.700 C 131.575 231.765,130.113 229.948,129.079 228.663 C 128.046 227.378,127.200 226.440,127.200 226.579 M344.493 227.600 C 344.493 228.370,344.575 228.685,344.676 228.300 C 344.776 227.915,344.776 227.285,344.676 226.900 C 344.575 226.515,344.493 226.830,344.493 227.600 M372.520 230.800 C 372.520 232.010,372.595 232.505,372.687 231.900 C 372.778 231.295,372.778 230.305,372.687 229.700 C 372.595 229.095,372.520 229.590,372.520 230.800 M345.354 236.400 C 345.354 239.150,345.418 240.275,345.496 238.900 C 345.574 237.525,345.574 235.275,345.496 233.900 C 345.418 232.525,345.354 233.650,345.354 236.400 M134.955 236.519 C 135.803 237.553,136.580 238.400,136.682 238.400 C 136.955 238.400,134.421 235.260,133.877 234.924 C 133.622 234.766,134.107 235.484,134.955 236.519 M372.524 239.800 C 372.526 241.120,372.601 241.612,372.690 240.893 C 372.779 240.174,372.777 239.094,372.686 238.493 C 372.595 237.892,372.522 238.480,372.524 239.800 M344.493 245.600 C 344.493 246.370,344.575 246.685,344.676 246.300 C 344.776 245.915,344.776 245.285,344.676 244.900 C 344.575 244.515,344.493 244.830,344.493 245.600 M144.175 248.132 C 144.791 248.939,145.376 249.600,145.475 249.600 C 145.753 249.600,144.021 247.260,143.509 246.944 C 143.259 246.789,143.559 247.324,144.175 248.132 M371.049 247.415 C 370.912 247.773,370.815 248.366,370.834 248.733 C 370.853 249.100,371.027 248.869,371.221 248.220 C 371.598 246.958,371.465 246.333,371.049 247.415 M343.646 249.267 C 343.621 249.634,343.496 250.264,343.370 250.667 C 343.152 251.362,343.163 251.363,343.597 250.687 C 343.848 250.296,343.973 249.666,343.873 249.287 C 343.711 248.668,343.688 248.666,343.646 249.267 M146.012 250.269 C 146.019 250.451,146.694 251.328,147.512 252.218 C 149.075 253.917,148.889 253.513,147.076 251.269 C 146.484 250.537,146.005 250.087,146.012 250.269 M367.878 255.805 C 367.512 256.572,367.295 257.200,367.396 257.200 C 367.670 257.200,368.884 254.751,368.701 254.568 C 368.614 254.481,368.244 255.038,367.878 255.805 M156.077 263.115 C 157.524 265.092,164.513 273.600,164.691 273.600 C 164.804 273.600,164.278 272.835,163.522 271.900 C 162.767 270.965,160.746 268.445,159.031 266.300 C 157.316 264.155,155.832 262.400,155.734 262.400 C 155.635 262.400,155.790 262.722,156.077 263.115 M336.000 265.116 C 336.000 265.289,334.793 266.774,333.319 268.416 C 331.844 270.057,331.142 270.950,331.759 270.400 C 333.610 268.750,336.912 264.800,336.440 264.800 C 336.198 264.800,336.000 264.942,336.000 265.116 M358.283 269.058 C 357.009 270.291,356.029 271.363,356.106 271.439 C 356.183 271.516,357.310 270.504,358.610 269.190 C 361.598 266.171,361.364 266.077,358.283 269.058 M353.600 273.254 L 351.800 274.885 353.494 273.613 C 354.968 272.507,355.914 271.574,355.524 271.612 C 355.456 271.619,354.590 272.358,353.600 273.254 M316.600 278.000 C 315.493 278.282,315.477 278.309,316.400 278.347 C 316.950 278.369,317.670 278.213,318.000 278.000 C 318.681 277.560,318.329 277.560,316.600 278.000 M311.600 278.800 L 309.000 279.062 311.400 279.103 C 312.720 279.125,314.160 278.989,314.600 278.800 C 315.483 278.421,315.367 278.421,311.600 278.800 M27.344 282.800 C 27.344 284.890,27.412 285.745,27.494 284.700 C 27.576 283.655,27.576 281.945,27.494 280.900 C 27.412 279.855,27.344 280.710,27.344 282.800 M227.067 279.467 C 226.705 279.829,226.738 285.284,227.106 285.863 C 227.268 286.118,227.400 284.723,227.400 282.764 C 227.400 280.805,227.385 279.201,227.367 279.201 C 227.348 279.200,227.213 279.320,227.067 279.467 M82.800 279.881 C 83.130 280.002,83.940 280.572,84.600 281.150 L 85.800 282.200 84.625 280.900 C 83.979 280.185,83.169 279.614,82.825 279.632 C 82.287 279.659,82.283 279.693,82.800 279.881 M333.400 283.200 C 332.896 283.417,332.822 283.544,333.200 283.544 C 333.530 283.544,334.160 283.389,334.600 283.200 C 335.104 282.983,335.178 282.856,334.800 282.856 C 334.470 282.856,333.840 283.011,333.400 283.200 M326.800 284.800 C 325.996 285.057,325.957 285.123,326.600 285.132 C 327.040 285.138,327.760 284.989,328.200 284.800 C 329.219 284.362,328.168 284.362,326.800 284.800 M319.900 285.882 C 320.395 285.978,321.205 285.978,321.700 285.882 C 322.195 285.787,321.790 285.709,320.800 285.709 C 319.810 285.709,319.405 285.787,319.900 285.882 M312.700 286.293 C 313.635 286.377,315.165 286.377,316.100 286.293 C 317.035 286.209,316.270 286.140,314.400 286.140 C 312.530 286.140,311.765 286.209,312.700 286.293 " stroke="none" fill="#646464" fill-rule="evenodd"></path><path id="path3" d="M310.905 112.687 C 311.514 112.779,312.414 112.777,312.905 112.682 C 313.397 112.587,312.900 112.511,311.800 112.514 C 310.700 112.517,310.297 112.595,310.905 112.687 M152.934 116.400 C 152.934 118.050,153.005 118.725,153.091 117.900 C 153.178 117.075,153.178 115.725,153.091 114.900 C 153.005 114.075,152.934 114.750,152.934 116.400 M33.124 120.299 C 36.273 120.367,41.313 120.367,44.324 120.299 C 47.336 120.231,44.760 120.176,38.600 120.176 C 32.440 120.176,29.976 120.232,33.124 120.299 M157.200 120.283 C 167.699 120.565,177.508 120.574,177.339 120.300 C 177.236 120.135,171.718 120.038,165.076 120.085 C 158.434 120.132,154.890 120.221,157.200 120.283 M195.524 120.299 C 198.673 120.367,203.713 120.367,206.724 120.299 C 209.736 120.231,207.160 120.176,201.000 120.176 C 194.840 120.176,192.376 120.232,195.524 120.299 M233.124 120.299 C 236.273 120.367,241.313 120.367,244.324 120.299 C 247.336 120.231,244.760 120.176,238.600 120.176 C 232.440 120.176,229.976 120.232,233.124 120.299 M282.300 120.299 C 285.875 120.366,291.725 120.366,295.300 120.299 C 298.875 120.233,295.950 120.179,288.800 120.179 C 281.650 120.179,278.725 120.233,282.300 120.299 M274.991 154.400 C 274.991 172.990,275.040 180.595,275.100 171.300 C 275.160 162.005,275.160 146.795,275.100 137.500 C 275.040 128.205,274.991 135.810,274.991 154.400 M274.993 237.400 C 274.993 260.060,275.041 269.271,275.100 257.869 C 275.159 246.468,275.159 227.928,275.100 216.669 C 275.041 205.411,274.993 214.740,274.993 237.400 M372.909 235.200 C 372.909 236.190,372.987 236.595,373.082 236.100 C 373.178 235.605,373.178 234.795,373.082 234.300 C 372.987 233.805,372.909 234.210,372.909 235.200 M331.375 270.100 L 330.200 271.400 331.500 270.225 C 332.215 269.579,332.800 268.994,332.800 268.925 C 332.800 268.616,332.470 268.888,331.375 270.100 M33.124 279.099 C 36.273 279.167,41.313 279.167,44.324 279.099 C 47.336 279.031,44.760 278.976,38.600 278.976 C 32.440 278.976,29.976 279.032,33.124 279.099 M67.100 279.099 C 69.575 279.169,73.625 279.169,76.100 279.099 C 78.575 279.028,76.550 278.971,71.600 278.971 C 66.650 278.971,64.625 279.028,67.100 279.099 M233.124 279.099 C 236.273 279.167,241.313 279.167,244.324 279.099 C 247.336 279.031,244.760 278.976,238.600 278.976 C 232.440 278.976,229.976 279.032,233.124 279.099 M283.727 279.100 C 288.527 279.164,296.267 279.163,300.927 279.099 C 305.587 279.036,301.660 278.983,292.200 278.983 C 282.740 278.983,278.927 279.036,283.727 279.100 M86.432 285.497 L 86.400 286.395 56.900 286.500 L 27.400 286.605 56.913 286.703 C 88.106 286.806,87.365 286.845,86.669 285.113 C 86.556 284.831,86.449 285.004,86.432 285.497 M248.869 286.700 C 260.677 286.759,280.117 286.759,292.069 286.700 C 304.021 286.641,294.360 286.593,270.600 286.593 C 246.840 286.593,237.061 286.641,248.869 286.700 " stroke="none" fill="#6c6c6c" fill-rule="evenodd"></path><path id="path4" d="M27.067 112.667 C 26.698 113.035,26.729 119.909,27.100 120.138 C 27.265 120.240,27.400 118.541,27.400 116.362 C 27.400 114.183,27.385 112.400,27.367 112.400 C 27.348 112.400,27.213 112.520,27.067 112.667 M67.421 112.706 C 67.652 112.868,68.887 114.305,70.166 115.900 C 71.444 117.495,72.570 118.800,72.668 118.800 C 72.877 118.800,72.469 118.237,69.836 114.894 C 68.756 113.522,67.676 112.403,67.436 112.406 C 67.135 112.410,67.130 112.503,67.421 112.706 M226.570 112.933 C 226.086 114.195,226.594 120.134,227.200 120.298 C 227.674 120.427,227.689 120.383,227.270 120.088 C 226.879 119.813,226.774 118.760,226.870 116.057 C 227.000 112.400,226.955 111.931,226.570 112.933 M313.633 112.544 C 313.725 112.624,315.150 112.789,316.800 112.911 C 318.576 113.042,319.392 112.999,318.800 112.806 C 317.823 112.487,313.303 112.258,313.633 112.544 M212.397 116.482 C 212.289 118.617,212.342 120.220,212.516 120.045 C 212.691 119.870,212.779 118.123,212.714 116.164 L 212.594 112.600 212.397 116.482 M322.400 113.600 C 322.950 113.776,323.760 113.926,324.200 113.932 L 325.000 113.944 324.200 113.600 C 323.760 113.411,322.950 113.262,322.400 113.268 L 321.400 113.280 322.400 113.600 M327.000 114.400 C 327.440 114.589,328.070 114.744,328.400 114.744 C 328.778 114.744,328.704 114.617,328.200 114.400 C 327.760 114.211,327.130 114.056,326.800 114.056 C 326.422 114.056,326.496 114.183,327.000 114.400 M332.800 116.000 C 333.130 116.213,333.670 116.388,334.000 116.388 C 334.533 116.388,334.533 116.345,334.000 116.000 C 333.670 115.787,333.130 115.612,332.800 115.612 C 332.267 115.612,332.267 115.655,332.800 116.000 M337.200 117.389 C 337.200 117.706,340.100 118.833,340.328 118.605 C 340.441 118.492,340.435 118.400,340.316 118.400 C 340.196 118.400,339.446 118.128,338.649 117.795 C 337.852 117.462,337.200 117.279,337.200 117.389 M340.833 118.931 C 341.513 119.463,344.000 120.825,344.000 120.665 C 344.000 120.406,341.405 118.800,340.986 118.800 C 340.810 118.800,340.742 118.859,340.833 118.931 M74.221 121.000 C 75.834 122.968,76.549 123.463,75.233 121.700 C 73.679 119.617,73.311 119.200,73.029 119.200 C 72.874 119.200,73.410 120.010,74.221 121.000 M50.000 199.520 L 50.200 278.600 50.301 199.821 C 50.357 156.493,50.267 120.907,50.101 120.741 C 49.935 120.575,49.890 156.026,50.000 199.520 M189.200 202.760 L 189.200 285.121 187.700 285.519 C 186.875 285.738,186.503 285.936,186.874 285.959 C 187.245 285.981,188.009 285.825,188.572 285.611 L 189.596 285.221 189.698 202.811 C 189.754 157.485,189.665 120.400,189.500 120.400 C 189.335 120.400,189.200 157.462,189.200 202.760 M306.033 120.550 C 306.125 120.632,307.280 120.800,308.600 120.923 C 310.178 121.070,310.589 121.035,309.800 120.820 C 308.566 120.485,305.736 120.282,306.033 120.550 M177.200 184.880 C 177.090 220.234,177.136 249.024,177.301 248.859 C 177.467 248.693,177.557 219.767,177.501 184.579 L 177.400 120.600 177.200 184.880 M344.433 120.923 C 346.515 122.465,348.821 123.958,348.621 123.634 C 348.305 123.123,344.978 120.800,344.561 120.800 C 344.399 120.800,344.342 120.856,344.433 120.923 M312.600 121.600 C 312.736 121.820,313.242 121.987,313.724 121.972 C 314.569 121.945,314.571 121.931,313.800 121.600 C 312.699 121.127,312.308 121.127,312.600 121.600 M76.415 123.469 C 76.423 123.651,77.080 124.520,77.873 125.400 C 79.321 127.005,79.013 126.387,77.309 124.269 C 76.809 123.647,76.407 123.287,76.415 123.469 M319.600 123.779 C 319.600 123.889,320.140 124.259,320.800 124.600 C 321.460 124.941,322.000 125.131,322.000 125.021 C 322.000 124.911,321.460 124.541,320.800 124.200 C 320.140 123.859,319.600 123.669,319.600 123.779 M352.179 127.200 C 356.564 131.889,356.629 131.953,355.702 130.600 C 354.780 129.255,351.987 126.318,350.186 124.800 C 349.534 124.250,350.431 125.330,352.179 127.200 M79.600 127.379 C 79.600 127.710,85.626 135.200,85.892 135.200 C 86.004 135.200,85.480 134.435,84.728 133.500 C 83.975 132.565,82.513 130.748,81.479 129.463 C 80.446 128.178,79.600 127.240,79.600 127.379 M324.841 127.300 C 324.937 127.355,325.912 128.210,327.007 129.200 L 329.000 131.000 327.217 129.100 C 326.236 128.055,325.261 127.200,325.050 127.200 C 324.839 127.200,324.745 127.245,324.841 127.300 M329.853 132.808 C 330.438 133.693,331.006 134.328,331.114 134.219 C 331.314 134.019,329.315 131.200,328.974 131.200 C 328.872 131.200,329.268 131.924,329.853 132.808 M333.844 141.400 C 334.173 142.871,334.402 143.190,334.394 142.167 C 334.391 141.745,334.205 141.130,333.982 140.800 C 333.685 140.362,333.648 140.524,333.844 141.400 M360.644 141.400 C 360.973 142.871,361.202 143.190,361.194 142.167 C 361.191 141.745,361.005 141.130,360.782 140.800 C 360.485 140.362,360.448 140.524,360.644 141.400 M334.673 144.800 C 334.804 145.790,334.976 146.675,335.056 146.767 C 335.357 147.114,335.128 144.564,334.790 143.800 C 334.553 143.266,334.514 143.598,334.673 144.800 M361.493 145.300 C 361.781 147.552,362.000 147.721,362.000 145.690 C 362.000 144.787,361.837 143.947,361.638 143.824 C 361.432 143.696,361.369 144.330,361.493 145.300 M62.099 212.313 L 62.198 279.000 62.300 212.823 C 62.373 165.938,62.528 146.568,62.835 146.379 C 63.112 146.207,63.040 146.024,62.634 145.868 C 62.057 145.647,62.009 151.605,62.099 212.313 M64.396 148.394 C 65.090 149.271,65.867 150.118,66.123 150.276 C 66.378 150.434,65.893 149.716,65.045 148.681 C 64.197 147.647,63.420 146.800,63.318 146.800 C 63.216 146.800,63.701 147.518,64.396 148.394 M97.141 149.500 C 97.871 150.435,98.554 151.200,98.661 151.200 C 98.973 151.200,97.303 148.981,96.526 148.364 C 96.135 148.054,96.412 148.565,97.141 149.500 M335.293 149.200 C 335.293 149.970,335.375 150.285,335.476 149.900 C 335.576 149.515,335.576 148.885,335.476 148.500 C 335.375 148.115,335.293 148.430,335.293 149.200 M362.134 151.600 C 362.134 153.250,362.205 153.925,362.291 153.100 C 362.378 152.275,362.378 150.925,362.291 150.100 C 362.205 149.275,362.134 149.950,362.134 151.600 M67.375 152.132 C 67.991 152.939,68.576 153.600,68.675 153.600 C 68.953 153.600,67.221 151.260,66.709 150.944 C 66.459 150.789,66.759 151.324,67.375 152.132 M335.731 153.800 C 335.733 155.340,335.805 155.921,335.892 155.091 C 335.979 154.261,335.977 153.001,335.889 152.291 C 335.800 151.581,335.729 152.260,335.731 153.800 M99.930 153.100 C 100.361 153.705,101.129 154.560,101.637 155.000 C 102.145 155.440,101.872 154.945,101.032 153.900 C 99.374 151.839,98.663 151.322,99.930 153.100 M69.200 154.211 C 69.200 154.359,70.259 155.797,71.553 157.406 C 72.847 159.015,74.193 160.741,74.544 161.241 C 74.895 161.742,75.253 162.073,75.341 161.976 C 75.428 161.879,74.082 160.032,72.350 157.870 C 70.617 155.709,69.200 154.062,69.200 154.211 M361.660 156.867 C 361.627 157.454,361.496 158.264,361.370 158.667 C 361.152 159.360,361.165 159.361,361.595 158.690 C 361.846 158.299,361.977 157.489,361.886 156.890 L 361.720 155.800 361.660 156.867 M335.293 158.800 C 335.293 159.570,335.375 159.885,335.476 159.500 C 335.576 159.115,335.576 158.485,335.476 158.100 C 335.375 157.715,335.293 158.030,335.293 158.800 M334.860 161.667 C 334.827 162.254,334.696 163.064,334.570 163.467 C 334.352 164.160,334.365 164.161,334.795 163.490 C 335.046 163.099,335.177 162.289,335.086 161.690 L 334.920 160.600 334.860 161.667 M108.396 163.594 C 109.090 164.471,109.867 165.318,110.123 165.476 C 110.378 165.634,109.893 164.916,109.045 163.881 C 108.197 162.847,107.420 162.000,107.318 162.000 C 107.216 162.000,107.701 162.718,108.396 163.594 M334.046 164.867 C 334.021 165.234,333.896 165.864,333.770 166.267 C 333.552 166.962,333.563 166.963,333.997 166.287 C 334.248 165.896,334.373 165.266,334.273 164.887 C 334.111 164.268,334.088 164.266,334.046 164.867 M79.097 166.900 C 83.355 172.290,87.690 177.600,87.834 177.600 C 87.935 177.600,87.267 176.655,86.349 175.500 C 85.431 174.345,83.433 171.825,81.909 169.900 C 80.385 167.975,79.040 166.400,78.920 166.400 C 78.800 166.400,78.880 166.625,79.097 166.900 M113.873 170.457 C 114.933 171.808,116.485 173.653,117.322 174.557 C 118.159 175.461,117.375 174.355,115.579 172.100 C 113.784 169.845,112.232 168.000,112.131 168.000 C 112.030 168.000,112.814 169.106,113.873 170.457 M355.461 172.267 C 355.054 172.810,354.805 173.338,354.907 173.440 C 355.008 173.542,355.400 173.154,355.778 172.578 C 356.667 171.221,356.422 170.981,355.461 172.267 M351.702 177.402 C 350.549 178.823,348.254 181.095,346.602 182.450 C 342.993 185.413,342.604 186.035,346.055 183.327 C 348.497 181.410,352.938 176.835,353.653 175.500 C 354.283 174.324,353.888 174.709,351.702 177.402 M119.591 177.588 C 120.057 178.241,120.642 178.902,120.891 179.056 C 121.141 179.211,120.841 178.676,120.225 177.868 C 118.888 176.115,118.384 175.892,119.591 177.588 M324.254 179.855 C 323.623 180.397,323.173 180.906,323.254 180.986 C 323.334 181.066,323.916 180.688,324.546 180.145 C 325.177 179.603,325.627 179.094,325.546 179.014 C 325.466 178.934,324.884 179.312,324.254 179.855 M121.600 179.812 C 121.600 180.145,125.652 185.200,125.919 185.200 C 126.125 185.200,125.987 185.012,123.469 181.863 C 122.441 180.578,121.600 179.655,121.600 179.812 M318.000 184.000 C 316.790 184.639,315.941 185.171,316.113 185.181 C 316.538 185.207,320.400 183.236,320.400 182.993 C 320.400 182.726,320.455 182.703,318.000 184.000 M126.415 185.869 C 126.423 186.051,127.080 186.920,127.873 187.800 C 129.321 189.405,129.013 188.787,127.309 186.669 C 126.809 186.047,126.407 185.687,126.415 185.869 M311.600 186.400 C 310.776 186.664,310.741 186.726,311.400 186.754 C 311.840 186.773,312.470 186.613,312.800 186.400 C 313.501 185.947,313.014 185.947,311.600 186.400 M307.300 187.476 C 307.685 187.576,308.315 187.576,308.700 187.476 C 309.085 187.375,308.770 187.293,308.000 187.293 C 307.230 187.293,306.915 187.375,307.300 187.476 M96.740 189.116 C 97.233 189.809,97.844 190.504,98.097 190.660 C 98.350 190.817,98.154 190.377,97.660 189.684 C 97.167 188.991,96.556 188.296,96.303 188.140 C 96.050 187.983,96.246 188.423,96.740 189.116 M281.874 188.299 C 285.655 188.365,291.955 188.365,295.874 188.299 C 299.793 188.234,296.700 188.180,289.000 188.180 C 281.300 188.180,278.093 188.234,281.874 188.299 M129.600 189.791 C 129.600 190.119,134.028 195.600,134.293 195.600 C 134.474 195.600,133.495 194.321,130.521 190.669 C 130.014 190.047,129.600 189.652,129.600 189.791 M333.800 192.400 C 334.996 192.914,335.995 192.914,335.200 192.400 C 334.870 192.187,334.240 192.022,333.800 192.034 L 333.000 192.056 333.800 192.400 M102.281 196.187 C 102.677 196.731,103.166 197.181,103.370 197.187 C 103.573 197.194,103.317 196.750,102.800 196.200 C 101.601 194.923,101.357 194.918,102.281 196.187 M283.500 196.300 C 288.175 196.364,295.825 196.364,300.500 196.300 C 305.175 196.236,301.350 196.183,292.000 196.183 C 282.650 196.183,278.825 196.236,283.500 196.300 M311.400 196.789 C 312.616 197.109,316.273 197.322,315.967 197.055 C 315.875 196.975,314.540 196.811,313.000 196.691 C 311.302 196.559,310.672 196.598,311.400 196.789 M317.000 197.600 C 317.440 197.789,318.160 197.938,318.600 197.932 C 319.243 197.923,319.204 197.857,318.400 197.600 C 317.032 197.162,315.981 197.162,317.000 197.600 M103.891 198.100 C 105.996 200.807,108.000 203.181,108.000 202.967 C 108.000 202.649,103.937 197.600,103.681 197.600 C 103.583 197.600,103.677 197.825,103.891 198.100 M320.833 198.535 C 321.219 198.847,324.400 199.977,324.400 199.802 C 324.400 199.563,321.651 198.400,321.084 198.400 C 320.855 198.400,320.742 198.461,320.833 198.535 M352.400 199.320 C 352.400 199.412,353.435 200.165,354.700 200.994 C 355.965 201.823,357.445 202.883,357.988 203.350 C 358.747 204.004,358.844 204.028,358.404 203.458 C 357.710 202.557,352.400 198.897,352.400 199.320 M324.833 200.129 C 325.493 200.639,328.800 202.394,328.800 202.234 C 328.800 201.976,325.436 200.000,324.998 200.000 C 324.816 200.000,324.742 200.058,324.833 200.129 M331.371 204.297 C 332.015 205.009,332.630 205.504,332.738 205.396 C 332.845 205.288,332.858 205.155,332.767 205.100 C 332.675 205.045,332.060 204.551,331.400 204.001 L 330.200 203.003 331.371 204.297 M362.084 207.039 C 363.560 208.650,365.249 210.696,365.837 211.584 C 367.099 213.491,367.559 213.740,366.523 211.955 C 366.125 211.271,364.360 209.225,362.600 207.410 C 359.800 204.522,359.735 204.476,362.084 207.039 M143.821 207.800 C 145.434 209.768,146.149 210.263,144.833 208.500 C 143.279 206.417,142.911 206.000,142.629 206.000 C 142.474 206.000,143.010 206.810,143.821 207.800 M334.800 207.368 C 334.800 207.494,335.629 208.723,336.642 210.099 C 337.655 211.474,338.829 213.275,339.250 214.100 C 339.672 214.925,340.107 215.600,340.218 215.600 C 340.512 215.600,339.277 213.280,337.874 211.200 C 336.467 209.113,334.800 207.035,334.800 207.368 M111.885 208.100 C 113.777 210.573,116.926 214.400,117.068 214.400 C 117.287 214.400,116.786 213.715,114.063 210.289 C 112.888 208.810,111.831 207.600,111.715 207.600 C 111.598 207.600,111.674 207.825,111.885 208.100 M146.015 210.269 C 146.023 210.451,146.680 211.320,147.473 212.200 C 148.921 213.805,148.613 213.187,146.909 211.069 C 146.409 210.447,146.007 210.087,146.015 210.269 M340.400 216.084 C 340.400 216.516,341.615 219.200,341.811 219.200 C 341.921 219.200,341.733 218.534,341.393 217.721 C 340.793 216.286,340.400 215.638,340.400 216.084 M121.244 219.800 C 122.238 221.281,123.600 222.864,123.594 222.531 C 123.591 222.349,122.940 221.480,122.148 220.600 C 121.356 219.720,120.949 219.360,121.244 219.800 M124.444 223.800 C 125.438 225.281,126.800 226.864,126.794 226.531 C 126.791 226.349,126.140 225.480,125.348 224.600 C 124.556 223.720,124.149 223.360,124.444 223.800 M343.634 225.800 C 343.622 226.240,343.787 226.870,344.000 227.200 C 344.514 227.995,344.514 226.996,344.000 225.800 L 343.656 225.000 343.634 225.800 M372.244 226.600 C 372.573 228.071,372.802 228.390,372.794 227.367 C 372.791 226.945,372.605 226.330,372.382 226.000 C 372.085 225.562,372.048 225.724,372.244 226.600 M127.940 228.316 C 128.433 229.009,129.044 229.704,129.297 229.860 C 129.550 230.017,129.354 229.577,128.860 228.884 C 128.367 228.191,127.756 227.496,127.503 227.340 C 127.250 227.183,127.446 227.623,127.940 228.316 M344.587 236.400 C 344.583 240.492,344.697 242.652,344.860 241.600 C 345.218 239.303,345.222 233.536,344.868 231.200 C 344.711 230.167,344.592 232.383,344.587 236.400 M372.951 235.400 C 372.946 238.040,373.072 239.750,373.231 239.200 C 373.601 237.922,373.606 232.908,373.240 231.600 C 373.086 231.050,372.956 232.760,372.951 235.400 M166.796 236.394 C 167.490 237.271,168.267 238.118,168.523 238.276 C 168.778 238.434,168.293 237.716,167.445 236.681 C 166.597 235.647,165.820 234.800,165.718 234.800 C 165.616 234.800,166.101 235.518,166.796 236.394 M135.596 237.994 C 136.290 238.871,137.067 239.718,137.323 239.876 C 137.578 240.034,137.093 239.316,136.245 238.281 C 135.397 237.247,134.620 236.400,134.518 236.400 C 134.416 236.400,134.901 237.118,135.596 237.994 M140.391 243.988 C 140.857 244.641,141.442 245.302,141.691 245.456 C 141.941 245.611,141.641 245.076,141.025 244.268 C 139.688 242.515,139.184 242.292,140.391 243.988 M372.229 244.229 C 372.081 244.815,372.051 245.384,372.161 245.494 C 372.271 245.604,372.481 245.215,372.629 244.629 C 372.776 244.042,372.806 243.473,372.696 243.363 C 372.586 243.253,372.376 243.642,372.229 244.229 M343.873 246.153 C 343.723 246.545,343.611 247.166,343.625 247.533 C 343.642 247.975,343.781 247.874,344.037 247.234 C 344.249 246.703,344.361 246.082,344.285 245.854 C 344.209 245.627,344.024 245.761,343.873 246.153 M174.800 246.264 C 174.800 246.482,175.295 247.097,175.900 247.630 L 177.000 248.600 176.000 247.400 C 175.450 246.740,174.955 246.125,174.900 246.033 C 174.845 245.942,174.800 246.045,174.800 246.264 M343.067 249.867 C 342.920 250.013,342.811 250.508,342.825 250.967 C 342.849 251.733,342.882 251.723,343.234 250.842 C 343.626 249.863,343.544 249.389,343.067 249.867 M367.428 257.461 C 366.856 258.484,366.452 259.385,366.529 259.463 C 366.607 259.540,367.161 258.703,367.760 257.602 C 368.360 256.501,368.764 255.600,368.659 255.600 C 368.554 255.600,368.000 256.437,367.428 257.461 M151.279 257.700 C 152.035 258.635,154.416 261.605,156.570 264.300 C 158.724 266.995,160.578 269.200,160.691 269.200 C 160.804 269.200,160.277 268.435,159.521 267.500 C 158.765 266.565,156.384 263.595,154.230 260.900 C 152.076 258.205,150.222 256.000,150.109 256.000 C 149.996 256.000,150.523 256.765,151.279 257.700 M338.473 261.000 C 338.222 261.550,338.083 262.000,338.163 262.000 C 338.243 262.000,338.603 261.550,338.963 261.000 C 339.324 260.450,339.463 260.000,339.273 260.000 C 339.084 260.000,338.723 260.450,338.473 261.000 M336.315 264.301 C 335.518 265.346,333.520 267.506,331.875 269.101 C 330.231 270.695,329.009 272.000,329.161 272.000 C 329.785 272.000,338.000 263.213,338.000 262.545 C 338.000 262.181,337.666 262.529,336.315 264.301 M362.971 264.300 C 362.352 265.125,360.576 267.163,359.023 268.828 L 356.200 271.856 359.410 268.628 C 362.309 265.712,364.740 262.800,364.275 262.800 C 364.176 262.800,363.589 263.475,362.971 264.300 M353.400 273.852 C 351.786 275.305,352.440 274.991,354.531 273.309 C 355.153 272.809,355.513 272.403,355.331 272.406 C 355.149 272.409,354.280 273.060,353.400 273.852 M166.796 277.194 C 167.490 278.071,168.267 278.918,168.523 279.076 C 168.778 279.234,168.293 278.516,167.445 277.481 C 166.597 276.447,165.820 275.600,165.718 275.600 C 165.616 275.600,166.101 276.318,166.796 277.194 M347.800 277.600 C 347.140 278.037,346.780 278.392,347.000 278.388 C 347.401 278.382,349.576 276.823,349.200 276.812 C 349.090 276.808,348.460 277.163,347.800 277.600 M312.600 278.400 L 311.800 278.744 312.600 278.732 C 313.040 278.726,313.850 278.576,314.400 278.400 L 315.400 278.080 314.400 278.068 C 313.850 278.062,313.040 278.211,312.600 278.400 M27.067 279.067 C 26.698 279.435,26.729 286.309,27.100 286.538 C 27.265 286.640,27.400 284.941,27.400 282.762 C 27.400 280.583,27.385 278.800,27.367 278.800 C 27.348 278.800,27.213 278.920,27.067 279.067 M80.433 278.943 C 80.525 279.021,81.230 279.201,82.000 279.342 C 82.985 279.523,83.222 279.482,82.800 279.206 C 82.258 278.850,80.037 278.603,80.433 278.943 M226.570 279.333 C 226.140 280.455,226.589 286.533,227.110 286.638 C 227.390 286.694,227.436 286.649,227.210 286.537 C 226.593 286.230,226.676 279.317,227.300 279.065 C 227.692 278.907,227.689 278.856,227.287 278.832 C 227.006 278.814,226.683 279.040,226.570 279.333 M84.675 280.754 C 85.294 281.389,85.876 281.838,85.968 281.753 C 86.201 281.537,84.344 279.600,83.905 279.600 C 83.710 279.600,84.056 280.119,84.675 280.754 M170.591 281.947 C 171.672 283.324,172.741 284.564,172.966 284.703 C 173.191 284.842,172.490 283.829,171.409 282.453 C 170.328 281.076,169.259 279.836,169.034 279.697 C 168.809 279.558,169.510 280.571,170.591 281.947 M336.216 282.664 C 335.345 282.978,334.535 283.331,334.417 283.450 C 334.101 283.766,336.409 283.153,337.800 282.551 C 339.400 281.858,338.217 281.943,336.216 282.664 M86.244 283.400 C 86.573 284.871,86.802 285.190,86.794 284.167 C 86.791 283.745,86.605 283.130,86.382 282.800 C 86.085 282.362,86.048 282.524,86.244 283.400 M331.800 284.000 C 330.781 284.438,331.832 284.438,333.200 284.000 C 334.004 283.743,334.043 283.677,333.400 283.668 C 332.960 283.662,332.240 283.811,331.800 284.000 M328.600 284.800 C 327.581 285.238,328.632 285.238,330.000 284.800 C 330.804 284.543,330.843 284.477,330.200 284.468 C 329.760 284.462,329.040 284.611,328.600 284.800 M183.600 286.400 C 182.805 286.914,183.804 286.914,185.000 286.400 L 185.800 286.056 185.000 286.034 C 184.560 286.022,183.930 286.187,183.600 286.400 M316.200 286.400 L 313.400 286.659 316.200 286.682 C 317.740 286.695,319.540 286.568,320.200 286.400 L 321.400 286.095 320.200 286.118 C 319.540 286.131,317.740 286.258,316.200 286.400 M180.200 287.200 C 179.696 287.417,179.622 287.544,180.000 287.544 C 180.330 287.544,180.960 287.389,181.400 287.200 C 181.904 286.983,181.978 286.856,181.600 286.856 C 181.270 286.856,180.640 287.011,180.200 287.200 M175.601 288.100 C 175.600 288.523,176.884 288.462,177.600 288.005 C 178.042 287.723,177.858 287.645,176.901 287.711 C 176.186 287.760,175.601 287.935,175.601 288.100 " stroke="none" fill="#8d8d8d" fill-rule="evenodd"></path></g></svg>